<svg width="14" height="14" viewBox="0 0 14 14" fill="none" xmlns="http://www.w3.org/2000/svg">
<path d="M8.27736 7.09823C8.26443 7.08533 8.25417 7.07 8.24717 7.05313C8.24016 7.03625 8.23656 7.01817 8.23656 6.9999C8.23656 6.98163 8.24016 6.96354 8.24717 6.94667C8.25417 6.9298 8.26443 6.91447 8.27736 6.90157L13.4231 1.75622C13.5793 1.59975 13.667 1.38761 13.6668 1.16649C13.6667 0.945359 13.5787 0.733351 13.4222 0.5771C13.2658 0.42085 13.0536 0.333157 12.8325 0.333313C12.6114 0.333469 12.3994 0.421462 12.2431 0.577933L7.09801 5.72106C7.08511 5.73399 7.06979 5.74426 7.05291 5.75126C7.03604 5.75826 7.01795 5.76186 6.99969 5.76186C6.98142 5.76186 6.96333 5.75826 6.94646 5.75126C6.92959 5.74426 6.91426 5.73399 6.90136 5.72106L1.75623 0.577933C1.67886 0.50053 1.58701 0.439122 1.48592 0.397218C1.38482 0.355313 1.27646 0.333732 1.16703 0.333706C0.946014 0.333654 0.734031 0.421405 0.577713 0.577656C0.421396 0.733906 0.333548 0.945856 0.333496 1.16688C0.333444 1.3879 0.421192 1.5999 0.577436 1.75622L5.72201 6.90157C5.73495 6.91447 5.74521 6.9298 5.75221 6.94667C5.75921 6.96354 5.76282 6.98163 5.76282 6.9999C5.76282 7.01817 5.75921 7.03625 5.75221 7.05313C5.74521 7.07 5.73495 7.08533 5.72201 7.09823L0.577436 12.2441C0.500071 12.3215 0.43871 12.4134 0.396855 12.5145C0.355 12.6157 0.33347 12.724 0.333496 12.8335C0.333548 13.0545 0.421396 13.2664 0.577713 13.4227C0.655114 13.5001 0.746995 13.5614 0.84811 13.6033C0.949224 13.6451 1.05759 13.6667 1.16703 13.6666C1.38804 13.6666 1.59998 13.5787 1.75623 13.4224L6.90136 8.27651C6.91426 8.26358 6.92959 8.25332 6.94646 8.24632C6.96333 8.23931 6.98142 8.23571 6.99969 8.23571C7.01795 8.23571 7.03604 8.23931 7.05291 8.24632C7.06979 8.25332 7.08511 8.26358 7.09801 8.27651L12.2431 13.4224C12.3994 13.5787 12.6113 13.6666 12.8323 13.6666C13.0534 13.6667 13.2653 13.5789 13.4217 13.4227C13.578 13.2664 13.6658 13.0545 13.6659 12.8335C13.6659 12.6124 13.5782 12.4005 13.4219 12.2441L8.27736 7.09823Z" fill="#7B729F"/>
</svg>
