<svg width="198" height="196" viewBox="0 0 198 196" fill="none" xmlns="http://www.w3.org/2000/svg">
<circle cx="99" cy="103" r="93" fill="#E3F2FF"/>
<path d="M39.7425 164.521C39.7907 164.341 39.5902 164.199 39.4369 164.303L28.2495 171.915C28.1585 171.979 28.0876 172.066 28.0449 172.168C28.0022 172.27 27.9896 172.382 28.0086 172.491C28.0275 172.6 28.0773 172.702 28.1519 172.783C28.2266 172.865 28.3231 172.924 28.4301 172.953L32.3678 174.004L30.0962 182.447C30.048 182.626 30.2485 182.769 30.4019 182.664L41.5892 175.052C41.6802 174.989 41.7511 174.901 41.7938 174.799C41.8365 174.697 41.8491 174.585 41.8301 174.476C41.8112 174.367 41.7615 174.266 41.6868 174.184C41.6121 174.103 41.5156 174.044 41.4086 174.015L37.4709 172.964L39.7425 164.521Z" fill="#938CD9"/>
<path d="M24.7575 19.9416L12.7744 21.068L17.3255 10.343L24.7575 19.9416Z" fill="#50CADB"/>
<rect width="16.6107" height="2.11379" rx="1.0569" transform="matrix(-0.998676 -0.0514427 -0.0532446 0.998582 66.7013 36.8643)" fill="#96C4F8"/>
<rect width="10.8327" height="2.1121" rx="1.05605" transform="matrix(-0.998678 -0.0514034 -0.0532854 0.99858 71.9231 30.1123)" fill="#96C4F8"/>
<ellipse cx="185.258" cy="159.215" rx="3.25806" ry="3.21506" fill="#8C73D1"/>
<rect x="22.5255" y="54.7065" width="99" height="99" rx="7.5" transform="rotate(-3 22.5255 54.7065)" fill="white" stroke="#7B729F"/>
<path fill-rule="evenodd" clip-rule="evenodd" d="M34.4033 66.3438L57.6861 65.1235L58.9063 88.4064L35.6235 89.6266L34.4033 66.3438ZM39.039 70.5178L39.7975 84.9909L54.2706 84.2324L53.5121 69.7593L39.039 70.5178ZM67.1251 64.6289L67.6198 74.0679L74.6991 73.6969L74.9299 78.1017L63.4458 78.7036L62.7203 64.8597L67.1251 64.6289ZM69.7995 64.4887L81.2836 63.8869L81.5145 68.2917L70.0304 68.8936L69.7995 64.4887ZM86.3178 63.623L109.601 62.4028L110.821 85.6857L87.538 86.9059L86.3178 63.623ZM90.9535 67.797L91.712 82.2702L106.185 81.5117L105.427 67.0385L90.9535 67.797ZM81.7783 73.3259L82.5038 87.1697L63.9405 88.1426L63.7096 83.7377L77.8681 82.9957L77.3734 73.5567L81.7783 73.3259ZM35.8873 94.6607L59.1702 93.4405L59.6483 102.565L55.2435 102.796L54.9961 98.0762L36.1182 99.0656L35.8873 94.6607ZM64.2043 93.1767L78.0482 92.4512L78.5263 101.576L74.1215 101.806L73.8741 97.0869L64.4351 97.5816L64.2043 93.1767ZM96.9261 91.4618L97.1735 96.1813L101.893 95.934L102.495 107.418L98.09 107.649L97.719 100.57L92.9995 100.817L92.5213 91.6927L96.9261 91.4618ZM111.085 90.7198L111.563 99.8442L107.158 100.075L106.68 90.9507L111.085 90.7198ZM87.7345 96.676L88.2292 106.115L92.9487 105.868L93.1795 110.273L79.3357 110.998L79.1048 106.593L83.8243 106.346L83.3296 96.9069L87.7345 96.676ZM40.7868 103.869L41.0342 108.588L45.7537 108.341L45.9845 112.746L36.8602 113.224L36.382 104.1L40.7868 103.869ZM69.1038 102.385L69.3512 107.104L74.0707 106.857L74.3015 111.262L65.1772 111.74L64.699 102.616L69.1038 102.385ZM111.703 102.519L112.058 109.283L107.653 109.514L107.298 102.749L111.703 102.519ZM50.7878 108.077L59.9122 107.599L60.143 112.004L51.0187 112.482L50.7878 108.077ZM37.124 118.258L60.4069 117.038L61.6271 140.321L38.3442 141.541L37.124 118.258ZM41.7597 122.432L42.5182 136.905L56.9913 136.147L56.2328 121.674L41.7597 122.432ZM69.8458 116.543L70.8352 135.421L84.9937 134.679L85.2245 139.084L66.6612 140.057L65.441 116.774L69.8458 116.543ZM74.88 116.28L84.0043 115.801L84.7299 129.645L75.6055 130.123L75.3747 125.719L80.0942 125.471L79.8303 120.437L75.1108 120.684L74.88 116.28ZM93.4433 115.307L94.6635 138.59L90.2587 138.82L89.0385 115.538L93.4433 115.307ZM98.4775 115.043L112.321 114.317L113.047 128.161L103.608 128.656L103.872 133.69L113.311 133.195L113.542 137.6L99.6977 138.326L98.9721 124.482L108.411 123.987L108.147 118.953L98.7083 119.448L98.4775 115.043Z" fill="#BAB7E1"/>
<rect x="41.8247" y="73.21" width="9" height="9" transform="rotate(-2.9966 41.8247 73.21)" fill="#BAB7E1"/>
<rect x="44.974" y="125.448" width="8" height="8" transform="rotate(-2.9966 44.974 125.448)" fill="#BAB7E1"/>
<rect x="44.0006" y="101.447" width="8" height="4" transform="rotate(-2.9966 44.0006 101.447)" fill="#BAB7E1"/>
<rect x="73.5" y="18.5" width="103" height="165" rx="7.5" fill="white" stroke="#7B729F"/>
<circle cx="125" cy="173" r="5" stroke="#7B729F" stroke-linecap="round" stroke-linejoin="round"/>
<rect x="89.5" y="77.5" width="71" height="15" rx="7.5" fill="white" stroke="#7B729F"/>
<path opacity="0.3" d="M97 82H144C144.552 82 145 82.4477 145 83V87C145 87.5523 144.552 88 144 88H97V82Z" fill="#A9C1E5"/>
<rect x="96" y="80" width="1" height="10" fill="#7B729F"/>
<path d="M151.125 86.875L154.875 83.125" stroke="#7B729F" stroke-linecap="round" stroke-linejoin="round"/>
<path d="M154.875 86.875L151.125 83.125" stroke="#7B729F" stroke-linecap="round" stroke-linejoin="round"/>
<rect x="89" y="101" width="15" height="15" rx="2" fill="#E5ECF7"/>
<rect x="89" y="120" width="15" height="15" rx="2" fill="#E5ECF7"/>
<rect x="108" y="101" width="15" height="15" rx="2" fill="#E5ECF7"/>
<rect x="108" y="120" width="15" height="15" rx="2" fill="#E5ECF7"/>
<rect x="127" y="101" width="15" height="15" rx="2" fill="#E5ECF7"/>
<rect x="127" y="120" width="15" height="15" rx="2" fill="#E5ECF7"/>
<rect x="146" y="101" width="15" height="15" rx="2" fill="#E5ECF7"/>
<rect x="146" y="120" width="15" height="15" rx="2" fill="#E5ECF7"/>
<rect x="119" y="22" width="12" height="2" rx="1" fill="#7B729F"/>
<path d="M125.251 66C123.752 66 122.37 65.6578 121.104 64.9733C119.852 64.2745 118.855 63.3191 118.113 62.107C117.371 60.8806 117 59.5116 117 58C117 56.4884 117.371 55.1266 118.113 53.9144C118.855 52.6881 119.852 51.7326 121.104 51.0481C122.37 50.3494 123.752 50 125.251 50C126.473 50 127.587 50.2139 128.591 50.6417C129.609 51.0553 130.482 51.6471 131.21 52.4171L129.18 54.3636C128.656 53.8217 128.074 53.4153 127.434 53.1444C126.808 52.8734 126.073 52.738 125.229 52.738C124.269 52.738 123.388 52.959 122.588 53.4011C121.788 53.8289 121.147 54.4492 120.667 55.262C120.201 56.0606 119.969 56.9733 119.969 58C119.969 59.0267 120.209 59.9465 120.689 60.7594C121.169 61.5579 121.809 62.1783 122.61 62.6203C123.425 63.0481 124.312 63.262 125.273 63.262C126.728 63.262 127.921 62.8414 128.853 62C129.144 61.7433 129.398 61.4153 129.617 61.016C129.835 60.6168 129.995 60.1818 130.097 59.7112H125.186V57.2513H132.847C132.949 57.6506 133 58.0998 133 58.5989C133 59.6114 132.84 60.5526 132.52 61.4225C132.214 62.2923 131.741 63.0553 131.101 63.7112C130.402 64.4528 129.558 65.0232 128.569 65.4225C127.579 65.8075 126.473 66 125.251 66Z" fill="#E5ECF7"/>
<rect x="188" y="19" width="8" height="8" rx="2" fill="#A9C1E6"/>
</svg>
