<svg
  width="198"
  height="196"
  viewBox="0 0 198 196"
  fill="none"
  xmlns="http://www.w3.org/2000/svg"
>
  <circle cx="99" cy="103" r="93" fill="#D5E7FA" />
  <path
    d="M59.5001 65.5C59.5001 61.634 62.6341 58.5 66.5001 58.5H91.5001C95.3661 58.5 98.5001 61.634 98.5001 65.5V97.5H66.5001C62.6341 97.5 59.5001 94.366 59.5001 90.5V65.5Z"
    fill="#C7C4EE"
    stroke="#7B729F"
  />
  <path
    d="M99.5 98.5H131.5C135.366 98.5 138.5 101.634 138.5 105.5V130.5C138.5 134.366 135.366 137.5 131.5 137.5H106.5C102.634 137.5 99.5 134.366 99.5 130.5V98.5Z"
    fill="#BADAFC"
    stroke="#7B729F"
  />
  <circle cx="124" cy="73" r="14.5" fill="#C7C4EE" stroke="#7B729F" />
  <circle cx="74" cy="123" r="14.5" fill="#BADAFC" stroke="#7B729F" />
  <path
    d="M195.448 97.525C195.496 97.3452 195.293 97.2037 195.141 97.3099L187.18 102.842C187.115 102.889 187.063 102.954 187.032 103.029C187.002 103.104 186.993 103.187 187.006 103.267C187.02 103.348 187.056 103.423 187.11 103.483C187.164 103.543 187.233 103.587 187.311 103.608L190.156 104.384L188.552 110.475C188.504 110.655 188.707 110.796 188.859 110.69L196.82 105.158C196.885 105.111 196.937 105.046 196.968 104.971C196.998 104.896 197.007 104.813 196.994 104.733C196.98 104.652 196.944 104.577 196.89 104.517C196.836 104.457 196.767 104.413 196.689 104.392L193.844 103.616L195.448 97.525Z"
    fill="#938CD9"
  />
  <path
    d="M23.9601 174.889L20.7782 185.849L13 178.071L23.9601 174.889Z"
    fill="#50CADB"
  />
  <path
    d="M141.313 14.4235L149.213 22.6592L138.588 25.5062L141.313 14.4235Z"
    fill="#608EA2"
  />
  <circle cx="132" cy="163" r="4" fill="#F3A3A3" />
  <rect x="20" y="22" width="8" height="8" rx="2" fill="#A9C1E6" />
  <circle cx="44" cy="84" r="4" fill="#8C73D1" />
</svg>
