<svg width="203" height="147" viewBox="0 0 203 147" fill="none" xmlns="http://www.w3.org/2000/svg">
<path d="M0 104.513H4.31904V123.38H14.0129V127.487H0V104.513Z" fill="#2A2248"/>
<path d="M31.7427 123.701C31.0175 124.984 30.0364 126.021 28.7994 126.813C27.5836 127.604 26.0906 128 24.3204 128C23.126 128 22.0169 127.797 20.9931 127.39C19.9907 126.963 19.1162 126.374 18.3697 125.626C17.6232 124.877 17.0366 124 16.6101 122.995C16.2048 121.968 16.0022 120.845 16.0022 119.626C16.0022 118.492 16.2048 117.422 16.6101 116.417C17.0153 115.39 17.5805 114.503 18.3057 113.754C19.0309 112.984 19.884 112.374 20.8651 111.925C21.8676 111.476 22.966 111.251 24.1604 111.251C25.4188 111.251 26.5385 111.465 27.5196 111.893C28.5008 112.299 29.3219 112.877 29.9831 113.626C30.6443 114.353 31.1455 115.219 31.4868 116.225C31.828 117.23 31.9987 118.321 31.9987 119.497C31.9987 119.647 31.9987 119.775 31.9987 119.882C31.9773 120.011 31.9667 120.128 31.9667 120.235C31.9453 120.342 31.9347 120.46 31.9347 120.588H20.1293C20.2146 121.23 20.3852 121.786 20.6412 122.257C20.9184 122.706 21.249 123.091 21.633 123.412C22.0382 123.711 22.4754 123.936 22.9447 124.086C23.4139 124.214 23.8938 124.278 24.3843 124.278C25.3441 124.278 26.1333 124.064 26.7518 123.636C27.3917 123.187 27.8929 122.631 28.2555 121.968L31.7427 123.701ZM27.9356 117.604C27.9142 117.326 27.8182 117.016 27.6476 116.674C27.4983 116.332 27.2637 116.011 26.9438 115.711C26.6452 115.412 26.2613 115.166 25.792 114.973C25.3441 114.781 24.8002 114.684 24.1604 114.684C23.2646 114.684 22.4754 114.941 21.7929 115.455C21.1104 115.968 20.6305 116.684 20.3532 117.604H27.9356Z" fill="#2A2248"/>
<path d="M36.2542 115.358H33.5028V111.765H36.2542V106.952H40.4453V111.765H44.2844V115.358H40.4453V121.455C40.4453 121.818 40.4773 122.16 40.5413 122.481C40.6266 122.781 40.7759 123.037 40.9892 123.251C41.2878 123.594 41.7143 123.765 42.2689 123.765C42.6315 123.765 42.9194 123.733 43.1327 123.668C43.346 123.583 43.5486 123.476 43.7406 123.348L44.9243 127.037C44.4337 127.273 43.9005 127.444 43.3246 127.551C42.7701 127.679 42.1516 127.743 41.4691 127.743C40.6799 127.743 39.9654 127.626 39.3255 127.39C38.707 127.134 38.1845 126.791 37.7579 126.364C36.7554 125.401 36.2542 124.032 36.2542 122.257V115.358Z" fill="#2A2248"/>
<path d="M54.2065 128C53.1827 128 52.2656 127.872 51.4551 127.615C50.6659 127.358 49.9728 127.027 49.3755 126.62C48.7997 126.193 48.3091 125.711 47.9039 125.176C47.4986 124.62 47.1894 124.064 46.9761 123.508L50.7193 121.904C51.0818 122.717 51.5617 123.326 52.1589 123.733C52.7775 124.118 53.46 124.31 54.2065 124.31C54.9743 124.31 55.5822 124.171 56.0301 123.893C56.478 123.615 56.7019 123.283 56.7019 122.898C56.7019 122.471 56.51 122.128 56.1261 121.872C55.7635 121.594 55.1236 121.348 54.2065 121.134L51.999 120.652C51.5084 120.545 50.9965 120.374 50.4633 120.139C49.9514 119.904 49.4822 119.604 49.0556 119.241C48.629 118.877 48.2771 118.438 47.9999 117.925C47.7226 117.412 47.5839 116.813 47.5839 116.128C47.5839 115.358 47.7439 114.674 48.0638 114.075C48.4051 113.476 48.8637 112.973 49.4395 112.567C50.0154 112.139 50.6873 111.818 51.4551 111.604C52.2442 111.369 53.0867 111.251 53.9825 111.251C55.4755 111.251 56.8086 111.551 57.9816 112.15C59.1547 112.727 60.0185 113.658 60.5731 114.941L56.9579 116.417C56.6593 115.797 56.222 115.348 55.6462 115.07C55.0703 114.791 54.4944 114.652 53.9185 114.652C53.3213 114.652 52.7988 114.781 52.3509 115.037C51.903 115.273 51.679 115.583 51.679 115.968C51.679 116.332 51.8603 116.62 52.2229 116.834C52.6068 117.048 53.1187 117.241 53.7586 117.412L56.158 117.989C57.7577 118.374 58.9414 118.995 59.7093 119.85C60.4984 120.684 60.893 121.679 60.893 122.834C60.893 123.519 60.733 124.171 60.4131 124.791C60.0932 125.412 59.6346 125.968 59.0374 126.46C58.4615 126.93 57.7577 127.305 56.9259 127.583C56.1154 127.861 55.2089 128 54.2065 128Z" fill="#2A2248"/>
<path d="M84.3245 123.797C83.1941 125.166 81.8611 126.214 80.3254 126.941C78.7898 127.647 77.0728 128 75.1746 128C73.4683 128 71.8793 127.69 70.4076 127.07C68.9573 126.449 67.6989 125.604 66.6325 124.535C65.566 123.465 64.7236 122.203 64.105 120.749C63.4865 119.273 63.1772 117.69 63.1772 116C63.1772 114.31 63.4865 112.738 64.105 111.283C64.7236 109.807 65.566 108.535 66.6325 107.465C67.6989 106.396 68.9573 105.551 70.4076 104.93C71.8793 104.31 73.4683 104 75.1746 104C77.0088 104 78.6191 104.321 80.0055 104.963C81.4132 105.604 82.6609 106.535 83.7487 107.754L80.7094 110.706C80.0268 109.914 79.2377 109.283 78.3419 108.813C77.4674 108.342 76.4223 108.107 75.2066 108.107C74.1401 108.107 73.1377 108.299 72.1992 108.684C71.2608 109.048 70.4396 109.572 69.7358 110.257C69.0533 110.941 68.5094 111.775 68.1041 112.759C67.6989 113.722 67.4963 114.802 67.4963 116C67.4963 117.198 67.6989 118.289 68.1041 119.273C68.5094 120.235 69.0533 121.059 69.7358 121.743C70.4396 122.428 71.2608 122.963 72.1992 123.348C73.1377 123.711 74.1401 123.893 75.2066 123.893C76.4863 123.893 77.6167 123.636 78.5978 123.123C79.6003 122.588 80.4854 121.84 81.2532 120.877L84.3245 123.797Z" fill="#2A2248"/>
<path d="M87.2874 104.513H91.4785V110.963L91.2225 113.818H91.4785C91.9264 113.07 92.5662 112.46 93.398 111.989C94.2512 111.497 95.2003 111.251 96.2454 111.251C98.2716 111.251 99.7646 111.85 100.724 113.048C101.706 114.246 102.196 115.882 102.196 117.957V127.487H98.005V118.471C98.005 117.38 97.7491 116.556 97.2372 116C96.7253 115.422 96.0108 115.134 95.0937 115.134C94.5178 115.134 94.0059 115.262 93.558 115.519C93.1101 115.754 92.7262 116.086 92.4063 116.513C92.1077 116.941 91.873 117.444 91.7024 118.021C91.5531 118.578 91.4785 119.176 91.4785 119.818V127.487H87.2874V104.513Z" fill="#2A2248"/>
<path d="M115.484 125.818H115.228C114.737 126.417 114.14 126.93 113.436 127.358C112.754 127.786 111.869 128 110.781 128C109.97 128 109.203 127.861 108.477 127.583C107.774 127.326 107.155 126.963 106.622 126.492C106.089 126.021 105.673 125.455 105.374 124.791C105.076 124.128 104.926 123.401 104.926 122.61C104.926 121.797 105.086 121.07 105.406 120.428C105.726 119.765 106.174 119.198 106.75 118.727C107.326 118.257 107.998 117.904 108.765 117.668C109.555 117.412 110.408 117.283 111.325 117.283C112.349 117.283 113.191 117.369 113.852 117.54C114.513 117.69 115.057 117.85 115.484 118.021V117.54C115.484 116.706 115.153 116.021 114.492 115.487C113.831 114.93 113.01 114.652 112.029 114.652C110.578 114.652 109.352 115.262 108.349 116.481L105.31 114.396C106.974 112.299 109.245 111.251 112.125 111.251C114.556 111.251 116.412 111.829 117.691 112.984C118.971 114.118 119.611 115.807 119.611 118.053V127.487H115.484V125.818ZM115.484 121.102C114.993 120.866 114.481 120.684 113.948 120.556C113.436 120.406 112.871 120.332 112.253 120.332C111.25 120.332 110.472 120.556 109.917 121.005C109.384 121.433 109.117 121.968 109.117 122.61C109.117 123.251 109.373 123.765 109.885 124.15C110.418 124.535 111.026 124.727 111.709 124.727C112.263 124.727 112.775 124.631 113.244 124.438C113.714 124.225 114.108 123.957 114.428 123.636C114.769 123.294 115.025 122.909 115.196 122.481C115.388 122.032 115.484 121.572 115.484 121.102Z" fill="#2A2248"/>
<path d="M124.678 115.358H121.927V111.765H124.678V106.952H128.869V111.765H132.709V115.358H128.869V121.455C128.869 121.818 128.901 122.16 128.965 122.481C129.051 122.781 129.2 123.037 129.413 123.251C129.712 123.594 130.138 123.765 130.693 123.765C131.056 123.765 131.344 123.733 131.557 123.668C131.77 123.583 131.973 123.476 132.165 123.348L133.348 127.037C132.858 127.273 132.325 127.444 131.749 127.551C131.194 127.679 130.576 127.743 129.893 127.743C129.104 127.743 128.39 127.626 127.75 127.39C127.131 127.134 126.609 126.791 126.182 126.364C125.18 125.401 124.678 124.032 124.678 122.257V115.358Z" fill="#2A2248"/>
<path d="M134.832 104.513H139.407L142.958 117.925L143.47 120.396H143.726L144.398 117.925L147.693 107.594H151.724L155.051 117.925L155.691 120.364H155.947L156.427 117.925L159.754 104.513H164.329L158.251 127.487H154.092L150.508 116.417L149.837 113.882H149.581L148.909 116.417L145.326 127.487H141.166L134.832 104.513Z" fill="#2A2248"/>
<path d="M168.667 109.487C168.304 109.487 167.952 109.422 167.611 109.294C167.291 109.144 167.003 108.952 166.747 108.717C166.512 108.46 166.32 108.171 166.171 107.85C166.043 107.529 165.979 107.176 165.979 106.791C165.979 106.406 166.043 106.053 166.171 105.733C166.32 105.412 166.512 105.134 166.747 104.898C167.003 104.642 167.291 104.449 167.611 104.321C167.952 104.171 168.304 104.096 168.667 104.096C169.413 104.096 170.053 104.364 170.586 104.898C171.119 105.412 171.386 106.043 171.386 106.791C171.386 107.54 171.119 108.182 170.586 108.717C170.053 109.23 169.413 109.487 168.667 109.487ZM166.587 127.487V111.765H170.778V127.487H166.587Z" fill="#2A2248"/>
<path d="M176.502 115.358H173.75V111.765H176.502V106.952H180.693V111.765H184.532V115.358H180.693V121.455C180.693 121.818 180.725 122.16 180.789 122.481C180.874 122.781 181.024 123.037 181.237 123.251C181.535 123.594 181.962 123.765 182.517 123.765C182.879 123.765 183.167 123.733 183.38 123.668C183.594 123.583 183.796 123.476 183.988 123.348L185.172 127.037C184.681 127.273 184.148 127.444 183.572 127.551C183.018 127.679 182.399 127.743 181.717 127.743C180.928 127.743 180.213 127.626 179.573 127.39C178.955 127.134 178.432 126.791 178.006 126.364C177.003 125.401 176.502 124.032 176.502 122.257V115.358Z" fill="#2A2248"/>
<path d="M188.091 104.513H192.282V110.963L192.026 113.818H192.282C192.73 113.07 193.37 112.46 194.202 111.989C195.055 111.497 196.004 111.251 197.049 111.251C199.076 111.251 200.569 111.85 201.528 113.048C202.509 114.246 203 115.882 203 117.957V127.487H198.809V118.471C198.809 117.38 198.553 116.556 198.041 116C197.529 115.422 196.815 115.134 195.898 115.134C195.322 115.134 194.81 115.262 194.362 115.519C193.914 115.754 193.53 116.086 193.21 116.513C192.912 116.941 192.677 117.444 192.506 118.021C192.357 118.578 192.282 119.176 192.282 119.818V127.487H188.091V104.513Z" fill="#2A2248"/>
<path d="M68.557 144.886C68.832 144.886 69.063 144.853 69.25 144.787C69.437 144.721 69.5855 144.633 69.6955 144.523C69.8092 144.413 69.8899 144.285 69.9375 144.138C69.9889 143.991 70.0145 143.835 70.0145 143.67C70.0145 143.498 69.987 143.344 69.932 143.208C69.877 143.069 69.7909 142.952 69.6735 142.856C69.5562 142.757 69.404 142.682 69.217 142.631C69.0337 142.58 68.8119 142.554 68.5515 142.554H67.061V144.886H68.557ZM67.061 139.232V141.531H68.238C68.744 141.531 69.1254 141.439 69.382 141.256C69.6424 141.073 69.7725 140.781 69.7725 140.381C69.7725 139.967 69.6552 139.672 69.4205 139.496C69.1859 139.32 68.8192 139.232 68.3205 139.232H67.061ZM68.3205 138.088C68.8412 138.088 69.2867 138.137 69.657 138.236C70.0274 138.335 70.3299 138.477 70.5645 138.66C70.8029 138.843 70.977 139.065 71.087 139.325C71.197 139.586 71.252 139.879 71.252 140.205C71.252 140.392 71.2245 140.572 71.1695 140.744C71.1145 140.913 71.0284 141.073 70.911 141.223C70.7974 141.37 70.6507 141.503 70.471 141.624C70.295 141.745 70.0842 141.848 69.8385 141.932C70.9312 142.178 71.4775 142.768 71.4775 143.703C71.4775 144.041 71.4134 144.352 71.285 144.638C71.1567 144.924 70.9697 145.172 70.724 145.381C70.4784 145.586 70.1759 145.748 69.8165 145.865C69.4572 145.982 69.0465 146.041 68.5845 146.041H65.5815V138.088H68.3205Z" fill="#9891B7"/>
<path d="M76.618 142.961V146.041H75.144V142.961L72.2455 138.088H73.549C73.6773 138.088 73.7781 138.119 73.8515 138.181C73.9285 138.244 73.9926 138.323 74.044 138.418L75.496 141.074C75.5803 141.232 75.6536 141.381 75.716 141.52C75.782 141.659 75.8406 141.799 75.892 141.938C75.9396 141.799 75.9946 141.659 76.057 141.52C76.1193 141.381 76.1908 141.232 76.2715 141.074L77.718 138.418C77.7583 138.337 77.8188 138.262 77.8995 138.192C77.9801 138.123 78.0828 138.088 78.2075 138.088H79.5165L76.618 142.961Z" fill="#9891B7"/>
<path d="M89.1009 139.303H86.7029V146.041H85.2234V139.303H82.8254V138.088H89.1009V139.303Z" fill="#9891B7"/>
<path d="M97.5061 138.088V146.041H96.0211V142.565H92.2866V146.041H90.8016V138.088H92.2866V141.509H96.0211V138.088H97.5061Z" fill="#9891B7"/>
<path d="M101.422 146.041H99.9372V138.088H101.422V146.041Z" fill="#9891B7"/>
<path d="M108.098 139.534C108.054 139.611 108.006 139.668 107.955 139.705C107.907 139.738 107.847 139.754 107.773 139.754C107.696 139.754 107.612 139.727 107.52 139.672C107.432 139.613 107.326 139.549 107.201 139.479C107.077 139.41 106.93 139.347 106.761 139.292C106.596 139.234 106.4 139.204 106.173 139.204C105.967 139.204 105.788 139.23 105.634 139.281C105.48 139.329 105.35 139.397 105.243 139.485C105.141 139.573 105.064 139.679 105.012 139.804C104.961 139.925 104.935 140.059 104.935 140.205C104.935 140.392 104.987 140.548 105.089 140.673C105.196 140.798 105.335 140.904 105.507 140.992C105.68 141.08 105.876 141.159 106.096 141.228C106.316 141.298 106.541 141.373 106.772 141.454C107.003 141.531 107.229 141.623 107.449 141.729C107.669 141.832 107.865 141.964 108.037 142.125C108.21 142.283 108.347 142.477 108.45 142.708C108.556 142.939 108.609 143.219 108.609 143.549C108.609 143.909 108.547 144.246 108.422 144.561C108.301 144.873 108.122 145.146 107.883 145.381C107.649 145.612 107.361 145.795 107.02 145.931C106.679 146.063 106.288 146.129 105.848 146.129C105.595 146.129 105.346 146.103 105.1 146.052C104.855 146.004 104.618 145.935 104.391 145.843C104.167 145.751 103.956 145.641 103.758 145.513C103.56 145.385 103.384 145.242 103.23 145.084L103.665 144.374C103.701 144.323 103.749 144.281 103.808 144.248C103.866 144.211 103.929 144.193 103.995 144.193C104.086 144.193 104.185 144.231 104.292 144.308C104.398 144.382 104.525 144.464 104.671 144.556C104.818 144.648 104.988 144.732 105.183 144.809C105.381 144.882 105.617 144.919 105.892 144.919C106.314 144.919 106.64 144.82 106.871 144.622C107.102 144.42 107.218 144.132 107.218 143.758C107.218 143.549 107.165 143.379 107.058 143.247C106.956 143.115 106.818 143.005 106.646 142.917C106.473 142.825 106.277 142.748 106.057 142.686C105.837 142.624 105.614 142.556 105.386 142.482C105.159 142.409 104.935 142.321 104.715 142.218C104.495 142.116 104.299 141.982 104.127 141.817C103.954 141.652 103.815 141.447 103.709 141.201C103.606 140.952 103.555 140.645 103.555 140.282C103.555 139.993 103.612 139.71 103.725 139.435C103.843 139.16 104.011 138.917 104.231 138.704C104.451 138.491 104.723 138.321 105.045 138.192C105.368 138.064 105.738 138 106.156 138C106.626 138 107.058 138.073 107.454 138.22C107.85 138.367 108.188 138.572 108.466 138.836L108.098 139.534Z" fill="#9891B7"/>
<path d="M120.622 142.064C120.622 142.647 120.525 143.183 120.33 143.67C120.136 144.158 119.863 144.578 119.511 144.93C119.159 145.282 118.735 145.555 118.24 145.749C117.745 145.944 117.195 146.041 116.59 146.041H113.56V138.088H116.59C117.195 138.088 117.745 138.187 118.24 138.385C118.735 138.579 119.159 138.852 119.511 139.204C119.863 139.553 120.136 139.971 120.33 140.458C120.525 140.946 120.622 141.481 120.622 142.064ZM119.104 142.064C119.104 141.628 119.045 141.238 118.928 140.893C118.814 140.545 118.647 140.251 118.427 140.013C118.211 139.771 117.947 139.586 117.635 139.457C117.327 139.329 116.979 139.265 116.59 139.265H115.045V144.864H116.59C116.979 144.864 117.327 144.8 117.635 144.671C117.947 144.543 118.211 144.36 118.427 144.121C118.647 143.879 118.814 143.586 118.928 143.241C119.045 142.893 119.104 142.501 119.104 142.064Z" fill="#9891B7"/>
<path d="M130.173 142.064C130.173 142.647 130.075 143.188 129.881 143.687C129.69 144.182 129.419 144.611 129.067 144.974C128.715 145.337 128.292 145.621 127.797 145.826C127.302 146.028 126.752 146.129 126.147 146.129C125.545 146.129 124.997 146.028 124.502 145.826C124.007 145.621 123.582 145.337 123.226 144.974C122.874 144.611 122.601 144.182 122.407 143.687C122.212 143.188 122.115 142.647 122.115 142.064C122.115 141.481 122.212 140.942 122.407 140.447C122.601 139.949 122.874 139.518 123.226 139.155C123.582 138.792 124.007 138.51 124.502 138.308C124.997 138.103 125.545 138 126.147 138C126.55 138 126.929 138.048 127.285 138.143C127.641 138.235 127.967 138.367 128.264 138.539C128.561 138.708 128.827 138.915 129.062 139.16C129.3 139.402 129.502 139.674 129.667 139.974C129.832 140.275 129.956 140.601 130.041 140.953C130.129 141.305 130.173 141.676 130.173 142.064ZM128.66 142.064C128.66 141.628 128.601 141.238 128.484 140.893C128.367 140.545 128.2 140.249 127.984 140.007C127.767 139.765 127.503 139.58 127.192 139.452C126.884 139.324 126.535 139.259 126.147 139.259C125.758 139.259 125.408 139.324 125.096 139.452C124.788 139.58 124.524 139.765 124.304 140.007C124.088 140.249 123.921 140.545 123.804 140.893C123.686 141.238 123.628 141.628 123.628 142.064C123.628 142.501 123.686 142.893 123.804 143.241C123.921 143.586 124.088 143.879 124.304 144.121C124.524 144.36 124.788 144.543 125.096 144.671C125.408 144.8 125.758 144.864 126.147 144.864C126.535 144.864 126.884 144.8 127.192 144.671C127.503 144.543 127.767 144.36 127.984 144.121C128.2 143.879 128.367 143.586 128.484 143.241C128.601 142.893 128.66 142.501 128.66 142.064Z" fill="#9891B7"/>
<path d="M137.418 139.303H135.02V146.041H133.541V139.303H131.143V138.088H137.418V139.303Z" fill="#9891B7"/>
<path d="M61 7.5C61 3.35786 64.3579 0 68.5 0H93.5C97.6421 0 101 3.35786 101 7.5V40H68.5C64.3579 40 61 36.6421 61 32.5V7.5Z" fill="#554DB3"/>
<path d="M101 40H133.5C137.642 40 141 43.3579 141 47.5V72.5C141 76.6421 137.642 80 133.5 80H108.5C104.358 80 101 76.6421 101 72.5V40Z" fill="#4F99EE"/>
<ellipse cx="126" cy="15" rx="15" ry="15" fill="#554DB3"/>
<ellipse cx="76" cy="65" rx="15" ry="15" fill="#4F99EE"/>
</svg>
