<svg width="203" height="130" viewBox="0 0 203 130" fill="none" xmlns="http://www.w3.org/2000/svg">
<path d="M0 106.513H4.31904V125.38H14.0129V129.487H0V106.513Z" fill="#2A2248"/>
<path d="M31.7427 125.701C31.0175 126.984 30.0364 128.021 28.7994 128.813C27.5836 129.604 26.0906 130 24.3204 130C23.126 130 22.0169 129.797 20.9931 129.39C19.9907 128.963 19.1162 128.374 18.3697 127.626C17.6232 126.877 17.0366 126 16.6101 124.995C16.2048 123.968 16.0022 122.845 16.0022 121.626C16.0022 120.492 16.2048 119.422 16.6101 118.417C17.0153 117.39 17.5805 116.503 18.3057 115.754C19.0309 114.984 19.884 114.374 20.8651 113.925C21.8676 113.476 22.966 113.251 24.1604 113.251C25.4188 113.251 26.5385 113.465 27.5196 113.893C28.5008 114.299 29.3219 114.877 29.9831 115.626C30.6443 116.353 31.1455 117.219 31.4868 118.225C31.828 119.23 31.9987 120.321 31.9987 121.497C31.9987 121.647 31.9987 121.775 31.9987 121.882C31.9773 122.011 31.9667 122.128 31.9667 122.235C31.9453 122.342 31.9347 122.46 31.9347 122.588H20.1293C20.2146 123.23 20.3852 123.786 20.6412 124.257C20.9184 124.706 21.249 125.091 21.633 125.412C22.0382 125.711 22.4754 125.936 22.9447 126.086C23.4139 126.214 23.8938 126.278 24.3843 126.278C25.3441 126.278 26.1333 126.064 26.7518 125.636C27.3917 125.187 27.8929 124.631 28.2555 123.968L31.7427 125.701ZM27.9356 119.604C27.9142 119.326 27.8182 119.016 27.6476 118.674C27.4983 118.332 27.2637 118.011 26.9438 117.711C26.6452 117.412 26.2613 117.166 25.792 116.973C25.3441 116.781 24.8002 116.684 24.1604 116.684C23.2646 116.684 22.4754 116.941 21.7929 117.455C21.1104 117.968 20.6305 118.684 20.3532 119.604H27.9356Z" fill="#2A2248"/>
<path d="M36.2542 117.358H33.5028V113.765H36.2542V108.952H40.4453V113.765H44.2844V117.358H40.4453V123.455C40.4453 123.818 40.4773 124.16 40.5413 124.481C40.6266 124.781 40.7759 125.037 40.9892 125.251C41.2878 125.594 41.7143 125.765 42.2689 125.765C42.6315 125.765 42.9194 125.733 43.1327 125.668C43.346 125.583 43.5486 125.476 43.7406 125.348L44.9243 129.037C44.4337 129.273 43.9005 129.444 43.3246 129.551C42.7701 129.679 42.1516 129.743 41.4691 129.743C40.6799 129.743 39.9654 129.626 39.3255 129.39C38.707 129.134 38.1845 128.791 37.7579 128.364C36.7554 127.401 36.2542 126.032 36.2542 124.257V117.358Z" fill="#2A2248"/>
<path d="M54.2065 130C53.1827 130 52.2656 129.872 51.4551 129.615C50.6659 129.358 49.9728 129.027 49.3755 128.62C48.7997 128.193 48.3091 127.711 47.9039 127.176C47.4986 126.62 47.1894 126.064 46.9761 125.508L50.7193 123.904C51.0818 124.717 51.5617 125.326 52.1589 125.733C52.7775 126.118 53.46 126.31 54.2065 126.31C54.9743 126.31 55.5822 126.171 56.0301 125.893C56.478 125.615 56.7019 125.283 56.7019 124.898C56.7019 124.471 56.51 124.128 56.1261 123.872C55.7635 123.594 55.1236 123.348 54.2065 123.134L51.999 122.652C51.5084 122.545 50.9965 122.374 50.4633 122.139C49.9514 121.904 49.4822 121.604 49.0556 121.241C48.629 120.877 48.2771 120.439 47.9999 119.925C47.7226 119.412 47.5839 118.813 47.5839 118.128C47.5839 117.358 47.7439 116.674 48.0638 116.075C48.4051 115.476 48.8637 114.973 49.4395 114.567C50.0154 114.139 50.6873 113.818 51.4551 113.604C52.2442 113.369 53.0867 113.251 53.9825 113.251C55.4755 113.251 56.8086 113.551 57.9816 114.15C59.1547 114.727 60.0185 115.658 60.5731 116.941L56.9579 118.417C56.6593 117.797 56.222 117.348 55.6462 117.07C55.0703 116.791 54.4944 116.652 53.9185 116.652C53.3213 116.652 52.7988 116.781 52.3509 117.037C51.903 117.273 51.679 117.583 51.679 117.968C51.679 118.332 51.8603 118.62 52.2229 118.834C52.6068 119.048 53.1187 119.241 53.7586 119.412L56.158 119.989C57.7577 120.374 58.9414 120.995 59.7093 121.85C60.4984 122.684 60.893 123.679 60.893 124.834C60.893 125.519 60.733 126.171 60.4131 126.791C60.0932 127.412 59.6346 127.968 59.0374 128.46C58.4615 128.93 57.7577 129.305 56.9259 129.583C56.1154 129.861 55.2089 130 54.2065 130Z" fill="#2A2248"/>
<path d="M84.3245 125.797C83.1941 127.166 81.8611 128.214 80.3254 128.941C78.7898 129.647 77.0728 130 75.1746 130C73.4683 130 71.8793 129.69 70.4076 129.07C68.9573 128.449 67.6989 127.604 66.6325 126.535C65.566 125.465 64.7236 124.203 64.105 122.749C63.4865 121.273 63.1772 119.69 63.1772 118C63.1772 116.31 63.4865 114.738 64.105 113.283C64.7236 111.807 65.566 110.535 66.6325 109.465C67.6989 108.396 68.9573 107.551 70.4076 106.93C71.8793 106.31 73.4683 106 75.1746 106C77.0088 106 78.6191 106.321 80.0055 106.963C81.4132 107.604 82.6609 108.535 83.7487 109.754L80.7094 112.706C80.0268 111.914 79.2377 111.283 78.3419 110.813C77.4674 110.342 76.4223 110.107 75.2066 110.107C74.1401 110.107 73.1377 110.299 72.1992 110.684C71.2608 111.048 70.4396 111.572 69.7358 112.257C69.0533 112.941 68.5094 113.775 68.1041 114.759C67.6989 115.722 67.4963 116.802 67.4963 118C67.4963 119.198 67.6989 120.289 68.1041 121.273C68.5094 122.235 69.0533 123.059 69.7358 123.743C70.4396 124.428 71.2608 124.963 72.1992 125.348C73.1377 125.711 74.1401 125.893 75.2066 125.893C76.4863 125.893 77.6167 125.636 78.5978 125.123C79.6003 124.588 80.4854 123.84 81.2532 122.877L84.3245 125.797Z" fill="#2A2248"/>
<path d="M87.2874 106.513H91.4785V112.963L91.2225 115.818H91.4785C91.9264 115.07 92.5662 114.46 93.398 113.989C94.2512 113.497 95.2003 113.251 96.2454 113.251C98.2716 113.251 99.7646 113.85 100.724 115.048C101.706 116.246 102.196 117.882 102.196 119.957V129.487H98.005V120.471C98.005 119.38 97.7491 118.556 97.2372 118C96.7253 117.422 96.0108 117.134 95.0937 117.134C94.5178 117.134 94.0059 117.262 93.558 117.519C93.1101 117.754 92.7262 118.086 92.4063 118.513C92.1077 118.941 91.873 119.444 91.7024 120.021C91.5531 120.578 91.4785 121.176 91.4785 121.818V129.487H87.2874V106.513Z" fill="#2A2248"/>
<path d="M115.484 127.818H115.228C114.737 128.417 114.14 128.93 113.436 129.358C112.754 129.786 111.869 130 110.781 130C109.97 130 109.203 129.861 108.477 129.583C107.774 129.326 107.155 128.963 106.622 128.492C106.089 128.021 105.673 127.455 105.374 126.791C105.076 126.128 104.926 125.401 104.926 124.61C104.926 123.797 105.086 123.07 105.406 122.428C105.726 121.765 106.174 121.198 106.75 120.727C107.326 120.257 107.998 119.904 108.765 119.668C109.555 119.412 110.408 119.283 111.325 119.283C112.349 119.283 113.191 119.369 113.852 119.54C114.513 119.69 115.057 119.85 115.484 120.021V119.54C115.484 118.706 115.153 118.021 114.492 117.487C113.831 116.93 113.01 116.652 112.029 116.652C110.578 116.652 109.352 117.262 108.349 118.481L105.31 116.396C106.974 114.299 109.245 113.251 112.125 113.251C114.556 113.251 116.412 113.829 117.691 114.984C118.971 116.118 119.611 117.807 119.611 120.053V129.487H115.484V127.818ZM115.484 123.102C114.993 122.866 114.481 122.684 113.948 122.556C113.436 122.406 112.871 122.332 112.253 122.332C111.25 122.332 110.472 122.556 109.917 123.005C109.384 123.433 109.117 123.968 109.117 124.61C109.117 125.251 109.373 125.765 109.885 126.15C110.418 126.535 111.026 126.727 111.709 126.727C112.263 126.727 112.775 126.631 113.244 126.439C113.714 126.225 114.108 125.957 114.428 125.636C114.769 125.294 115.025 124.909 115.196 124.481C115.388 124.032 115.484 123.572 115.484 123.102Z" fill="#2A2248"/>
<path d="M124.678 117.358H121.927V113.765H124.678V108.952H128.869V113.765H132.709V117.358H128.869V123.455C128.869 123.818 128.901 124.16 128.965 124.481C129.051 124.781 129.2 125.037 129.413 125.251C129.712 125.594 130.138 125.765 130.693 125.765C131.056 125.765 131.344 125.733 131.557 125.668C131.77 125.583 131.973 125.476 132.165 125.348L133.348 129.037C132.858 129.273 132.325 129.444 131.749 129.551C131.194 129.679 130.576 129.743 129.893 129.743C129.104 129.743 128.39 129.626 127.75 129.39C127.131 129.134 126.609 128.791 126.182 128.364C125.18 127.401 124.678 126.032 124.678 124.257V117.358Z" fill="#2A2248"/>
<path d="M134.832 106.513H139.407L142.958 119.925L143.47 122.396H143.726L144.398 119.925L147.693 109.594H151.724L155.051 119.925L155.691 122.364H155.947L156.427 119.925L159.754 106.513H164.329L158.251 129.487H154.092L150.508 118.417L149.837 115.882H149.581L148.909 118.417L145.326 129.487H141.166L134.832 106.513Z" fill="#2A2248"/>
<path d="M168.667 111.487C168.304 111.487 167.952 111.422 167.611 111.294C167.291 111.144 167.003 110.952 166.747 110.717C166.512 110.46 166.32 110.171 166.171 109.85C166.043 109.529 165.979 109.176 165.979 108.791C165.979 108.406 166.043 108.053 166.171 107.733C166.32 107.412 166.512 107.134 166.747 106.898C167.003 106.642 167.291 106.449 167.611 106.321C167.952 106.171 168.304 106.096 168.667 106.096C169.413 106.096 170.053 106.364 170.586 106.898C171.119 107.412 171.386 108.043 171.386 108.791C171.386 109.54 171.119 110.182 170.586 110.717C170.053 111.23 169.413 111.487 168.667 111.487ZM166.587 129.487V113.765H170.778V129.487H166.587Z" fill="#2A2248"/>
<path d="M176.502 117.358H173.75V113.765H176.502V108.952H180.693V113.765H184.532V117.358H180.693V123.455C180.693 123.818 180.725 124.16 180.789 124.481C180.874 124.781 181.024 125.037 181.237 125.251C181.535 125.594 181.962 125.765 182.517 125.765C182.879 125.765 183.167 125.733 183.38 125.668C183.594 125.583 183.796 125.476 183.988 125.348L185.172 129.037C184.681 129.273 184.148 129.444 183.572 129.551C183.018 129.679 182.399 129.743 181.717 129.743C180.928 129.743 180.213 129.626 179.573 129.39C178.955 129.134 178.432 128.791 178.006 128.364C177.003 127.401 176.502 126.032 176.502 124.257V117.358Z" fill="#2A2248"/>
<path d="M188.091 106.513H192.282V112.963L192.026 115.818H192.282C192.73 115.07 193.37 114.46 194.202 113.989C195.055 113.497 196.004 113.251 197.049 113.251C199.076 113.251 200.569 113.85 201.528 115.048C202.509 116.246 203 117.882 203 119.957V129.487H198.809V120.471C198.809 119.38 198.553 118.556 198.041 118C197.529 117.422 196.815 117.134 195.898 117.134C195.322 117.134 194.81 117.262 194.362 117.519C193.914 117.754 193.53 118.086 193.21 118.513C192.912 118.941 192.677 119.444 192.506 120.021C192.357 120.578 192.282 121.176 192.282 121.818V129.487H188.091V106.513Z" fill="#2A2248"/>
<path d="M61 7.5C61 3.35786 64.3579 0 68.5 0H93.5C97.6421 0 101 3.35786 101 7.5V40H68.5C64.3579 40 61 36.6421 61 32.5V7.5Z" fill="#554DB3"/>
<path d="M101 40H133.5C137.642 40 141 43.3579 141 47.5V72.5C141 76.6421 137.642 80 133.5 80H108.5C104.358 80 101 76.6421 101 72.5V40Z" fill="#4F99EE"/>
<circle cx="126" cy="15" r="15" fill="#554DB3"/>
<circle cx="76" cy="65" r="15" fill="#4F99EE"/>
</svg>
