<svg width="198" height="33" viewBox="0 0 198 33" fill="none" xmlns="http://www.w3.org/2000/svg">
<path d="M46 0.385027H49.234V14.5348H56.4924V17.615H46V0.385027Z" fill="#2A2248"/>
<path d="M69.7679 14.7754C69.225 15.738 68.4903 16.516 67.5641 17.1096C66.6538 17.7032 65.5358 18 64.2103 18C63.316 18 62.4855 17.8476 61.719 17.5428C60.9684 17.2219 60.3136 16.7807 59.7546 16.2193C59.1957 15.6578 58.7565 15 58.4371 14.246C58.1337 13.4759 57.9819 12.6337 57.9819 11.7193C57.9819 10.869 58.1337 10.0668 58.4371 9.31283C58.7405 8.54278 59.1637 7.87701 59.7067 7.31551C60.2497 6.73797 60.8885 6.28075 61.6231 5.94385C62.3737 5.60695 63.1962 5.4385 64.0905 5.4385C65.0328 5.4385 65.8712 5.59893 66.6058 5.91979C67.3405 6.2246 67.9553 6.65775 68.4504 7.21925C68.9455 7.76471 69.3208 8.41444 69.5763 9.16845C69.8318 9.92246 69.9596 10.7406 69.9596 11.623C69.9596 11.7353 69.9596 11.8316 69.9596 11.9118C69.9436 12.008 69.9356 12.0963 69.9356 12.1765C69.9197 12.2567 69.9117 12.3449 69.9117 12.4412H61.0722C61.1361 12.9225 61.2638 13.3396 61.4555 13.6925C61.6631 14.0294 61.9106 14.3182 62.1981 14.5588C62.5015 14.7834 62.8289 14.9519 63.1802 15.0642C63.5316 15.1604 63.8909 15.2086 64.2582 15.2086C64.9769 15.2086 65.5678 15.0481 66.0309 14.7273C66.51 14.3904 66.8853 13.9733 67.1568 13.4759L69.7679 14.7754ZM66.9173 10.2032C66.9013 9.99465 66.8294 9.76203 66.7017 9.50535C66.5899 9.24866 66.4142 9.00802 66.1746 8.78342C65.9511 8.55882 65.6636 8.37433 65.3123 8.22995C64.9769 8.08556 64.5696 8.01337 64.0905 8.01337C63.4198 8.01337 62.8289 8.20588 62.3179 8.59091C61.8068 8.97594 61.4475 9.51337 61.2399 10.2032H66.9173Z" fill="#2A2248"/>
<path d="M73.146 8.51872H71.0859V5.82353H73.146V2.2139H76.2842V5.82353H79.1588V8.51872H76.2842V13.0909C76.2842 13.3636 76.3081 13.6203 76.356 13.861C76.4199 14.0856 76.5317 14.2781 76.6914 14.4385C76.915 14.6952 77.2344 14.8235 77.6496 14.8235C77.9211 14.8235 78.1367 14.7995 78.2964 14.7513C78.4561 14.6872 78.6078 14.607 78.7515 14.5107L79.6379 17.2781C79.2706 17.4545 78.8713 17.5829 78.4401 17.6631C78.0249 17.7594 77.5618 17.8075 77.0507 17.8075C76.4598 17.8075 75.9248 17.7193 75.4457 17.5428C74.9826 17.3503 74.5913 17.0936 74.2719 16.7727C73.5213 16.0508 73.146 15.0241 73.146 13.6925V8.51872Z" fill="#2A2248"/>
<path d="M86.5881 18C85.8215 18 85.1348 17.9037 84.528 17.7112C83.9371 17.5187 83.418 17.2701 82.9709 16.9652C82.5397 16.6444 82.1723 16.2834 81.8689 15.8824C81.5655 15.4652 81.3339 15.0481 81.1742 14.631L83.977 13.4278C84.2485 14.0374 84.6078 14.4947 85.055 14.7995C85.5181 15.0882 86.0292 15.2326 86.5881 15.2326C87.163 15.2326 87.6182 15.1283 87.9536 14.9198C88.2889 14.7112 88.4566 14.4626 88.4566 14.1738C88.4566 13.8529 88.3129 13.5963 88.0254 13.4037C87.7539 13.1952 87.2748 13.0107 86.5881 12.8503L84.9352 12.4893C84.5679 12.4091 84.1846 12.2807 83.7853 12.1043C83.4021 11.9278 83.0507 11.7032 82.7313 11.4305C82.4119 11.1578 82.1484 10.8289 81.9408 10.4439C81.7332 10.0588 81.6294 9.60962 81.6294 9.09626C81.6294 8.51872 81.7491 8.00535 81.9887 7.55615C82.2442 7.10695 82.5876 6.72995 83.0188 6.42513C83.45 6.10428 83.953 5.86364 84.528 5.70321C85.1189 5.52674 85.7497 5.4385 86.4204 5.4385C87.5383 5.4385 88.5365 5.6631 89.4148 6.1123C90.2932 6.54545 90.94 7.24332 91.3552 8.20588L88.6483 9.31283C88.4247 8.84759 88.0973 8.5107 87.6661 8.30214C87.2349 8.09358 86.8037 7.98931 86.3725 7.98931C85.9253 7.98931 85.5341 8.08556 85.1987 8.27808C84.8633 8.45455 84.6956 8.68717 84.6956 8.97593C84.6956 9.24866 84.8314 9.46524 85.1029 9.62567C85.3903 9.7861 85.7736 9.93048 86.2527 10.0588L88.0494 10.492C89.2471 10.7807 90.1335 11.246 90.7084 11.8877C91.2993 12.5134 91.5948 13.2594 91.5948 14.1257C91.5948 14.639 91.475 15.1283 91.2354 15.5936C90.9959 16.0588 90.6525 16.4759 90.2054 16.8449C89.7742 17.1979 89.2471 17.4786 88.6243 17.6872C88.0174 17.8957 87.3387 18 86.5881 18Z" fill="#2A2248"/>
<path d="M109.14 14.8476C108.293 15.8743 107.295 16.6604 106.145 17.2059C104.995 17.7353 103.71 18 102.288 18C101.011 18 99.821 17.7674 98.719 17.3021C97.633 16.8369 96.6908 16.2032 95.8923 15.4011C95.0938 14.5989 94.463 13.6524 93.9998 12.5615C93.5367 11.4545 93.3051 10.2674 93.3051 9C93.3051 7.73262 93.5367 6.55348 93.9998 5.46257C94.463 4.35562 95.0938 3.40107 95.8923 2.59893C96.6908 1.79679 97.633 1.1631 98.719 0.697862C99.821 0.232621 101.011 0 102.288 0C103.662 0 104.868 0.240642 105.906 0.721926C106.96 1.20321 107.894 1.90107 108.708 2.81551L106.433 5.02941C105.922 4.43583 105.331 3.96257 104.66 3.60963C104.005 3.25669 103.223 3.08021 102.312 3.08021C101.514 3.08021 100.763 3.2246 100.061 3.51337C99.3578 3.7861 98.743 4.17914 98.216 4.69251C97.7049 5.20588 97.2977 5.83155 96.9942 6.56952C96.6908 7.29144 96.5391 8.10161 96.5391 9C96.5391 9.8984 96.6908 10.7166 96.9942 11.4545C97.2977 12.1765 97.7049 12.7941 98.216 13.3075C98.743 13.8209 99.3578 14.2219 100.061 14.5107C100.763 14.7834 101.514 14.9198 102.312 14.9198C103.271 14.9198 104.117 14.7273 104.852 14.3422C105.602 13.9412 106.265 13.3797 106.84 12.6578L109.14 14.8476Z" fill="#2A2248"/>
<path d="M111.358 0.385027H114.496V5.22193L114.305 7.36364H114.496C114.832 6.80214 115.311 6.34492 115.934 5.99198C116.572 5.62299 117.283 5.4385 118.066 5.4385C119.583 5.4385 120.701 5.8877 121.419 6.7861C122.154 7.68449 122.521 8.91177 122.521 10.4679V17.615H119.383V10.8529C119.383 10.0348 119.191 9.41711 118.808 9C118.425 8.56685 117.89 8.35027 117.203 8.35027C116.772 8.35027 116.389 8.44652 116.053 8.63904C115.718 8.81551 115.43 9.06417 115.191 9.38503C114.967 9.70588 114.792 10.0829 114.664 10.516C114.552 10.9332 114.496 11.3824 114.496 11.8636V17.615H111.358V0.385027Z" fill="#2A2248"/>
<path d="M132.471 16.3636H132.279C131.912 16.8128 131.465 17.1979 130.938 17.5187C130.427 17.8396 129.764 18 128.949 18C128.342 18 127.767 17.8957 127.225 17.6872C126.697 17.4947 126.234 17.2219 125.835 16.869C125.436 16.516 125.124 16.0909 124.901 15.5936C124.677 15.0963 124.565 14.5508 124.565 13.9572C124.565 13.3476 124.685 12.8021 124.925 12.3209C125.164 11.8235 125.5 11.3984 125.931 11.0455C126.362 10.6925 126.865 10.4278 127.44 10.2513C128.031 10.0588 128.67 9.96257 129.357 9.96257C130.123 9.96257 130.754 10.0267 131.249 10.1551C131.744 10.2674 132.151 10.3877 132.471 10.516V10.1551C132.471 9.52941 132.223 9.01604 131.728 8.61497C131.233 8.19786 130.618 7.98931 129.884 7.98931C128.798 7.98931 127.879 8.44652 127.129 9.36096L124.853 7.79679C126.099 6.2246 127.799 5.4385 129.955 5.4385C131.776 5.4385 133.165 5.87166 134.124 6.73797C135.082 7.58824 135.561 8.85562 135.561 10.5401V17.615H132.471V16.3636ZM132.471 12.8262C132.103 12.6497 131.72 12.5134 131.321 12.4171C130.938 12.3048 130.514 12.2487 130.051 12.2487C129.301 12.2487 128.718 12.4171 128.302 12.754C127.903 13.0749 127.704 13.4759 127.704 13.9572C127.704 14.4385 127.895 14.8235 128.279 15.1123C128.678 15.4011 129.133 15.5455 129.644 15.5455C130.059 15.5455 130.442 15.4733 130.794 15.3289C131.145 15.1684 131.441 14.9679 131.68 14.7273C131.936 14.4706 132.127 14.1818 132.255 13.861C132.399 13.5241 132.471 13.1791 132.471 12.8262Z" fill="#2A2248"/>
<path d="M139.355 8.51872H137.295V5.82353H139.355V2.2139H142.493V5.82353H145.368V8.51872H142.493V13.0909C142.493 13.3636 142.517 13.6203 142.565 13.861C142.629 14.0856 142.741 14.2781 142.901 14.4385C143.124 14.6952 143.444 14.8235 143.859 14.8235C144.13 14.8235 144.346 14.7995 144.506 14.7513C144.665 14.6872 144.817 14.607 144.961 14.5107L145.847 17.2781C145.48 17.4545 145.081 17.5829 144.649 17.6631C144.234 17.7594 143.771 17.8075 143.26 17.8075C142.669 17.8075 142.134 17.7193 141.655 17.5428C141.192 17.3503 140.801 17.0936 140.481 16.7727C139.731 16.0508 139.355 15.0241 139.355 13.6925V8.51872Z" fill="#2A2248"/>
<path d="M146.958 0.385027H150.383L153.042 10.4439L153.426 12.2968H153.617L154.12 10.4439L156.588 2.69519H159.606L162.098 10.4439L162.577 12.2727H162.768L163.128 10.4439L165.619 0.385027H169.045L164.493 17.615H161.379L158.696 9.31283L158.193 7.41177H158.001L157.498 9.31283L154.815 17.615H151.701L146.958 0.385027Z" fill="#2A2248"/>
<path d="M172.292 4.11497C172.021 4.11497 171.757 4.06684 171.502 3.97059C171.262 3.85829 171.047 3.7139 170.855 3.53743C170.679 3.34492 170.536 3.12834 170.424 2.8877C170.328 2.64706 170.28 2.38235 170.28 2.09358C170.28 1.80481 170.328 1.54011 170.424 1.29947C170.536 1.05882 170.679 0.850268 170.855 0.673797C171.047 0.481284 171.262 0.336899 171.502 0.240641C171.757 0.128342 172.021 0.072193 172.292 0.072193C172.851 0.072193 173.33 0.272728 173.73 0.673797C174.129 1.05882 174.328 1.53209 174.328 2.09358C174.328 2.65508 174.129 3.13636 173.73 3.53743C173.33 3.92246 172.851 4.11497 172.292 4.11497ZM170.735 17.615V5.82353H173.873V17.615H170.735Z" fill="#2A2248"/>
<path d="M178.159 8.51872H176.099V5.82353H178.159V2.2139H181.297V5.82353H184.172V8.51872H181.297V13.0909C181.297 13.3636 181.321 13.6203 181.369 13.861C181.433 14.0856 181.545 14.2781 181.704 14.4385C181.928 14.6952 182.247 14.8235 182.663 14.8235C182.934 14.8235 183.15 14.7995 183.309 14.7513C183.469 14.6872 183.621 14.607 183.765 14.5107L184.651 17.2781C184.284 17.4545 183.884 17.5829 183.453 17.6631C183.038 17.7594 182.575 17.8075 182.064 17.8075C181.473 17.8075 180.938 17.7193 180.459 17.5428C179.996 17.3503 179.604 17.0936 179.285 16.7727C178.534 16.0508 178.159 15.0241 178.159 13.6925V8.51872Z" fill="#2A2248"/>
<path d="M186.837 0.385027H189.975V5.22193L189.783 7.36364H189.975C190.31 6.80214 190.789 6.34492 191.412 5.99198C192.051 5.62299 192.762 5.4385 193.544 5.4385C195.061 5.4385 196.179 5.8877 196.898 6.7861C197.633 7.68449 198 8.91177 198 10.4679V17.615H194.862V10.8529C194.862 10.0348 194.67 9.41711 194.287 9C193.904 8.56685 193.369 8.35027 192.682 8.35027C192.251 8.35027 191.867 8.44652 191.532 8.63904C191.197 8.81551 190.909 9.06417 190.67 9.38503C190.446 9.70588 190.27 10.0829 190.143 10.516C190.031 10.9332 189.975 11.3824 189.975 11.8636V17.615H186.837V0.385027Z" fill="#2A2248"/>
<path d="M48.8612 30.886C49.1362 30.886 49.3672 30.853 49.5542 30.787C49.7412 30.721 49.8897 30.633 49.9997 30.523C50.1134 30.413 50.1941 30.2847 50.2417 30.138C50.2931 29.9913 50.3187 29.8355 50.3187 29.6705C50.3187 29.4982 50.2912 29.3442 50.2362 29.2085C50.1812 29.0692 50.0951 28.9518 49.9777 28.8565C49.8604 28.7575 49.7082 28.6823 49.5212 28.631C49.3379 28.5797 49.1161 28.554 48.8557 28.554H47.3652V30.886H48.8612ZM47.3652 25.232V27.531H48.5422C49.0482 27.531 49.4296 27.4393 49.6862 27.256C49.9466 27.0727 50.0767 26.7812 50.0767 26.3815C50.0767 25.9672 49.9594 25.672 49.7247 25.496C49.4901 25.32 49.1234 25.232 48.6247 25.232H47.3652ZM48.6247 24.088C49.1454 24.088 49.5909 24.1375 49.9612 24.2365C50.3316 24.3355 50.6341 24.4767 50.8687 24.66C51.1071 24.8433 51.2812 25.0652 51.3912 25.3255C51.5012 25.5858 51.5562 25.8792 51.5562 26.2055C51.5562 26.3925 51.5287 26.5722 51.4737 26.7445C51.4187 26.9132 51.3326 27.0727 51.2152 27.223C51.1016 27.3697 50.9549 27.5035 50.7752 27.6245C50.5992 27.7455 50.3884 27.8482 50.1427 27.9325C51.2354 28.1782 51.7817 28.7685 51.7817 29.7035C51.7817 30.0408 51.7176 30.3525 51.5892 30.6385C51.4609 30.9245 51.2739 31.172 51.0282 31.381C50.7826 31.5863 50.4801 31.7477 50.1207 31.865C49.7614 31.9823 49.3507 32.041 48.8887 32.041H45.8857V24.088H48.6247Z" fill="#9891B7"/>
<path d="M56.9222 28.961V32.041H55.4482V28.961L52.5497 24.088H53.8532C53.9815 24.088 54.0823 24.1192 54.1557 24.1815C54.2327 24.2438 54.2968 24.3227 54.3482 24.418L55.8002 27.0745C55.8845 27.2322 55.9578 27.3807 56.0202 27.52C56.0862 27.6593 56.1448 27.7987 56.1962 27.938C56.2438 27.7987 56.2988 27.6593 56.3612 27.52C56.4235 27.3807 56.495 27.2322 56.5757 27.0745L58.0222 24.418C58.0625 24.3373 58.123 24.2622 58.2037 24.1925C58.2843 24.1228 58.387 24.088 58.5117 24.088H59.8207L56.9222 28.961Z" fill="#9891B7"/>
<path d="M69.4051 25.3035H67.0071V32.041H65.5276V25.3035H63.1296V24.088H69.4051V25.3035Z" fill="#9891B7"/>
<path d="M77.8103 24.088V32.041H76.3253V28.565H72.5908V32.041H71.1058V24.088H72.5908V27.509H76.3253V24.088H77.8103Z" fill="#9891B7"/>
<path d="M81.7264 32.041H80.2414V24.088H81.7264V32.041Z" fill="#9891B7"/>
<path d="M88.402 25.5345C88.358 25.6115 88.3104 25.6683 88.259 25.705C88.2114 25.738 88.1509 25.7545 88.0775 25.7545C88.0005 25.7545 87.9162 25.727 87.8245 25.672C87.7365 25.6133 87.6302 25.5492 87.5055 25.4795C87.3809 25.4098 87.2342 25.3475 87.0655 25.2925C86.9005 25.2338 86.7044 25.2045 86.477 25.2045C86.2717 25.2045 86.092 25.2302 85.938 25.2815C85.784 25.3292 85.6539 25.397 85.5475 25.485C85.4449 25.573 85.3679 25.6793 85.3165 25.804C85.2652 25.925 85.2395 26.0588 85.2395 26.2055C85.2395 26.3925 85.2909 26.5483 85.3935 26.673C85.4999 26.7977 85.6392 26.904 85.8115 26.992C85.9839 27.08 86.18 27.1588 86.4 27.2285C86.62 27.2982 86.8455 27.3733 87.0765 27.454C87.3075 27.531 87.533 27.6227 87.753 27.729C87.973 27.8317 88.1692 27.9637 88.3415 28.125C88.5139 28.2827 88.6514 28.477 88.754 28.708C88.8604 28.939 88.9135 29.2195 88.9135 29.5495C88.9135 29.9088 88.8512 30.2462 88.7265 30.5615C88.6055 30.8732 88.4259 31.1463 88.1875 31.381C87.9529 31.612 87.665 31.7953 87.324 31.931C86.983 32.063 86.5925 32.129 86.1525 32.129C85.8995 32.129 85.6502 32.1033 85.4045 32.052C85.1589 32.0043 84.9224 31.9347 84.695 31.843C84.4714 31.7513 84.2605 31.6413 84.0625 31.513C83.8645 31.3847 83.6885 31.2417 83.5345 31.084L83.969 30.3745C84.0057 30.3232 84.0534 30.281 84.112 30.248C84.1707 30.2113 84.233 30.193 84.299 30.193C84.3907 30.193 84.4897 30.2315 84.596 30.3085C84.7024 30.3818 84.8289 30.4643 84.9755 30.556C85.1222 30.6477 85.2927 30.732 85.487 30.809C85.685 30.8823 85.9215 30.919 86.1965 30.919C86.6182 30.919 86.9445 30.82 87.1755 30.622C87.4065 30.4203 87.522 30.1325 87.522 29.7585C87.522 29.5495 87.4689 29.379 87.3625 29.247C87.2599 29.115 87.1224 29.005 86.95 28.917C86.7777 28.8253 86.5815 28.7483 86.3615 28.686C86.1415 28.6237 85.9179 28.5558 85.6905 28.4825C85.4632 28.4092 85.2395 28.3212 85.0195 28.2185C84.7995 28.1158 84.6034 27.982 84.431 27.817C84.2587 27.652 84.1194 27.4467 84.013 27.201C83.9104 26.9517 83.859 26.6455 83.859 26.2825C83.859 25.9928 83.9159 25.7105 84.0295 25.4355C84.1469 25.1605 84.3155 24.9167 84.5355 24.704C84.7555 24.4913 85.0269 24.3208 85.3495 24.1925C85.6722 24.0642 86.0425 24 86.4605 24C86.9299 24 87.3625 24.0733 87.7585 24.22C88.1545 24.3667 88.4919 24.572 88.7705 24.836L88.402 25.5345Z" fill="#9891B7"/>
<path d="M100.926 28.0645C100.926 28.6475 100.829 29.1828 100.635 29.6705C100.44 30.1582 100.167 30.578 99.8151 30.93C99.4631 31.282 99.0396 31.5552 98.5446 31.7495C98.0496 31.9438 97.4996 32.041 96.8946 32.041H93.8641V24.088H96.8946C97.4996 24.088 98.0496 24.187 98.5446 24.385C99.0396 24.5793 99.4631 24.8525 99.8151 25.2045C100.167 25.5528 100.44 25.9708 100.635 26.4585C100.829 26.9462 100.926 27.4815 100.926 28.0645ZM99.4081 28.0645C99.4081 27.6282 99.3495 27.2377 99.2321 26.893C99.1185 26.5447 98.9516 26.2513 98.7316 26.013C98.5153 25.771 98.2513 25.5858 97.9396 25.4575C97.6316 25.3292 97.2833 25.265 96.8946 25.265H95.3491V30.864H96.8946C97.2833 30.864 97.6316 30.7998 97.9396 30.6715C98.2513 30.5432 98.5153 30.3598 98.7316 30.1215C98.9516 29.8795 99.1185 29.5862 99.2321 29.2415C99.3495 28.8932 99.4081 28.5008 99.4081 28.0645Z" fill="#9891B7"/>
<path d="M110.477 28.0645C110.477 28.6475 110.38 29.1883 110.185 29.687C109.995 30.182 109.723 30.611 109.371 30.974C109.019 31.337 108.596 31.6212 108.101 31.8265C107.606 32.0282 107.056 32.129 106.451 32.129C105.849 32.129 105.301 32.0282 104.806 31.8265C104.311 31.6212 103.886 31.337 103.53 30.974C103.178 30.611 102.905 30.182 102.711 29.687C102.516 29.1883 102.419 28.6475 102.419 28.0645C102.419 27.4815 102.516 26.9425 102.711 26.4475C102.905 25.9488 103.178 25.518 103.53 25.155C103.886 24.792 104.311 24.5097 104.806 24.308C105.301 24.1027 105.849 24 106.451 24C106.854 24 107.234 24.0477 107.589 24.143C107.945 24.2347 108.271 24.3667 108.568 24.539C108.865 24.7077 109.131 24.9148 109.366 25.1605C109.604 25.4025 109.806 25.6738 109.971 25.9745C110.136 26.2752 110.26 26.6015 110.345 26.9535C110.433 27.3055 110.477 27.6758 110.477 28.0645ZM108.964 28.0645C108.964 27.6282 108.906 27.2377 108.788 26.893C108.671 26.5447 108.504 26.2495 108.288 26.0075C108.071 25.7655 107.807 25.5803 107.496 25.452C107.188 25.3237 106.839 25.2595 106.451 25.2595C106.062 25.2595 105.712 25.3237 105.4 25.452C105.092 25.5803 104.828 25.7655 104.608 26.0075C104.392 26.2495 104.225 26.5447 104.108 26.893C103.99 27.2377 103.932 27.6282 103.932 28.0645C103.932 28.5008 103.99 28.8932 104.108 29.2415C104.225 29.5862 104.392 29.8795 104.608 30.1215C104.828 30.3598 105.092 30.5432 105.4 30.6715C105.712 30.7998 106.062 30.864 106.451 30.864C106.839 30.864 107.188 30.7998 107.496 30.6715C107.807 30.5432 108.071 30.3598 108.288 30.1215C108.504 29.8795 108.671 29.5862 108.788 29.2415C108.906 28.8932 108.964 28.5008 108.964 28.0645Z" fill="#9891B7"/>
<path d="M117.723 25.3035H115.325V32.041H113.845V25.3035H111.447V24.088H117.723V25.3035Z" fill="#9891B7"/>
<path d="M0 3C0 1.34315 1.34315 0 3 0H13C14.6569 0 16 1.34315 16 3V16H3C1.34315 16 0 14.6569 0 13V3Z" fill="#554DB3"/>
<path d="M16 16H29C30.6569 16 32 17.3431 32 19V29C32 30.6569 30.6569 32 29 32H19C17.3431 32 16 30.6569 16 29V16Z" fill="#4F99EE"/>
<circle cx="26" cy="6" r="6" fill="#554DB3"/>
<circle cx="6" cy="26" r="6" fill="#4F99EE"/>
</svg>
