<svg width="198" height="196" viewBox="0 0 198 196" fill="none" xmlns="http://www.w3.org/2000/svg">
<circle cx="99" cy="103" r="93" fill="#D5E7FA"/>
<rect x="31.5" y="20.5001" width="135" height="147" rx="7.5" fill="white" stroke="#7B729F"/>
<rect x="44.4395" y="14.0597" width="135" height="147" rx="7.5" transform="rotate(3 44.4395 14.0597)" fill="white" stroke="#7B729F"/>
<circle cx="69.5162" cy="41.9102" r="14.5" transform="rotate(3 69.5162 41.9102)" fill="#D7E4F8" stroke="#7B729F"/>
<rect x="92.8137" y="41.0811" width="62" height="5" rx="2.5" transform="rotate(3 92.8137 41.0811)" fill="#C4D5EF"/>
<rect x="53.3352" y="73.6068" width="37" height="11" rx="5.5" transform="rotate(3 53.3352 73.6068)" fill="#C7C4EE" stroke="#7B729F"/>
<rect x="129.288" y="95.612" width="31" height="11" rx="5.5" transform="rotate(3 129.288 95.612)" fill="#C7C4EE" stroke="#7B729F"/>
<rect x="97.2749" y="75.9096" width="29" height="11" rx="5.5" transform="rotate(3 97.2749 75.9096)" fill="#C7C4EE" stroke="#7B729F"/>
<rect x="52.3931" y="91.5822" width="29" height="11" rx="5.5" transform="rotate(3 52.3931 91.5822)" fill="#C7C4EE" stroke="#7B729F"/>
<rect x="133.226" y="77.7937" width="35" height="11" rx="5.5" transform="rotate(3 133.226 77.7937)" fill="#C7C4EE" stroke="#7B729F"/>
<rect x="87.3452" y="93.4139" width="35" height="11" rx="5.5" transform="rotate(3 87.3452 93.4139)" fill="#C7C4EE" stroke="#7B729F"/>
<path d="M98.5594 191L86.8922 182.063C86.1387 181.497 85.5741 180.74 85.2652 179.882C84.9564 179.023 84.9164 178.1 85.1499 177.221C85.3334 176.533 85.679 175.893 86.1611 175.348C86.6433 174.803 87.2497 174.366 87.9357 174.07C88.6217 173.773 89.3698 173.626 90.1248 173.637C90.8797 173.648 91.6224 173.818 92.2979 174.135L95.912 175.837V156.334C95.912 155.185 96.3985 154.082 97.2644 153.269C98.1304 152.457 99.3049 152 100.53 152C101.754 152 102.929 152.457 103.795 153.269C104.661 154.082 105.147 155.185 105.147 156.334V169.336L111.282 170.298C113.438 170.635 115.396 171.678 116.809 173.243C118.222 174.807 118.998 176.791 119 178.842V191" fill="url(#paint0_linear)"/>
<path d="M98.5594 191L86.8922 182.063C86.1387 181.497 85.5741 180.74 85.2652 179.882C84.9564 179.023 84.9164 178.1 85.1499 177.221C85.3334 176.533 85.679 175.893 86.1611 175.348C86.6433 174.803 87.2497 174.366 87.9357 174.07C88.6217 173.773 89.3698 173.626 90.1248 173.637C90.8797 173.648 91.6224 173.818 92.2979 174.135L95.912 175.837V156.334C95.912 155.185 96.3985 154.082 97.2644 153.269C98.1304 152.457 99.3049 152 100.53 152C101.754 152 102.929 152.457 103.795 153.269C104.661 154.082 105.147 155.185 105.147 156.334V169.336L111.282 170.298C113.438 170.635 115.396 171.678 116.809 173.243C118.222 174.807 118.998 176.791 119 178.842V191" stroke="#7B729F" stroke-linecap="round" stroke-linejoin="round"/>
<path d="M93.0748 159C91.6065 157.525 90.6066 155.646 90.2016 153.601C89.7966 151.556 90.0047 149.436 90.7994 147.509C91.5942 145.582 92.94 143.936 94.6667 142.777C96.3934 141.618 98.4234 141 100.5 141C102.577 141 104.607 141.618 106.333 142.777C108.06 143.936 109.406 145.582 110.201 147.509C110.995 149.436 111.203 151.556 110.798 153.601C110.393 155.646 109.394 157.525 107.925 159" stroke="#7B729F" stroke-linecap="round" stroke-linejoin="round"/>
<path d="M130 123V138H115" stroke="#7B729F" stroke-linecap="round" stroke-linejoin="round"/>
<path d="M74 134.109C82.2822 128.375 92.3455 125.537 102.527 126.063C112.709 126.588 122.4 130.447 130 137.001" stroke="#7B729F" stroke-linecap="round" stroke-linejoin="round"/>
<path d="M196.023 89.5227C196.071 89.3432 195.87 89.2012 195.717 89.3064L185.234 96.5115C185.149 96.5715 185.082 96.6549 185.042 96.7517C185.002 96.8485 184.99 96.9548 185.008 97.0581C185.026 97.1615 185.073 97.2576 185.143 97.3352C185.213 97.4128 185.304 97.4687 185.404 97.4963L189.103 98.4935L186.977 106.477C186.929 106.657 187.13 106.799 187.283 106.694L197.766 99.4885C197.851 99.4285 197.918 99.3451 197.958 99.2483C197.998 99.1515 198.01 99.0452 197.992 98.9419C197.974 98.8385 197.927 98.7424 197.857 98.6648C197.787 98.5872 197.696 98.5313 197.596 98.5037L193.897 97.5065L196.023 89.5227Z" fill="#938CD9"/>
<path d="M11.6672 127.889L8.48518 138.849L0.707008 131.071L11.6672 127.889Z" fill="#50CADB"/>
<rect x="147.471" y="7" width="23" height="2" rx="1" transform="rotate(3 147.471 7)" fill="#96C4F8"/>
<rect x="141.105" width="15" height="2" rx="1" transform="rotate(3 141.105 0)" fill="#96C4F8"/>
<circle cx="11" cy="44" r="4" fill="#F3A3A3"/>
<defs>
<linearGradient id="paint0_linear" x1="102" y1="152" x2="102" y2="191" gradientUnits="userSpaceOnUse">
<stop offset="0.614583" stop-color="#F5CCC5"/>
<stop offset="1" stop-color="#F5CCC5" stop-opacity="0"/>
</linearGradient>
</defs>
</svg>
