<svg width="319" height="80" viewBox="0 0 319 80" fill="none" xmlns="http://www.w3.org/2000/svg">
<path d="M224.796 38L224.388 36.6667L223 36.25L224.143 35.4167V34L225.286 34.8333L226.592 34.4167L226.102 35.75L227 36.8333H225.612L224.796 38Z" fill="#802555"/>
<path d="M275.592 11L274.776 8.33333L272 7.5L274.286 5.83333V3L276.571 4.66667L279.184 3.83333L278.204 6.5L280 8.66667H277.224L275.592 11Z" fill="#EE4783"/>
<path d="M298.592 39L297.776 36.3333L295 35.5L297.286 33.8333V31L299.571 32.6667L302.184 31.8333L301.204 34.5L303 36.6667H300.224L298.592 39Z" fill="#FFE080"/>
<path d="M316.375 0.692756C317.061 0.293112 317.921 0.513456 318.396 1.41618C318.667 2.1015 318.4 2.95055 317.659 3.40261C316.932 3.66491 316.056 3.38736 315.597 2.68128C315.334 1.98871 315.615 1.13538 316.375 0.692756Z" stroke="#FFE080"/>
<path d="M264.851 77.2066C265.24 78.1525 264.851 79.2875 263.877 79.855C262.903 80.2334 261.734 79.855 261.149 78.9092C260.76 77.9633 261.149 76.8283 262.123 76.2607C263.097 75.6932 264.266 76.0716 264.851 77.2066Z" fill="#28D1D1"/>
<path d="M239.925 5.6033C240.12 6.07623 239.925 6.64375 239.438 6.92751C238.951 7.11668 238.367 6.92751 238.075 6.45458C237.88 5.98165 238.075 5.41413 238.562 5.13037C239.049 4.84661 239.633 5.03578 239.925 5.6033Z" fill="#EE4783"/>
<path d="M246.344 57.6614C246.415 57.8751 249.128 53.0267 252.909 48.8184C256.048 45.2521 259.972 41.4712 262.468 38.832C267.89 33.268 274.595 27.2751 273.171 25.8516C271.748 24.4281 265.183 32.416 261.33 36.9806C257.406 41.4741 245.988 57.163 246.344 57.6614Z" fill="#FFE080"/>
<path d="M295.048 65.4395C295.011 65.5771 297.793 63.7382 300.928 62.5095C303.575 61.4458 306.723 60.4419 308.759 59.7313C313.094 58.1589 318.341 56.7563 317.912 55.6094C317.483 54.4624 311.851 57.0163 308.592 58.4331C305.37 59.7122 295.071 65.0771 295.048 65.4395Z" fill="#EE4783"/>
<path d="M21.5918 38L20.7755 35.3333L18 34.5L20.2857 32.8333V30L22.5714 31.6667L25.1837 30.8333L24.2041 33.5L26 35.6667H23.2245L21.5918 38Z" fill="#FFE080"/>
<path d="M85.3878 18L84.1633 14L80 12.75L83.4286 10.25V6L86.8571 8.5L90.7755 7.25L89.3061 11.25L92 14.5H87.8367L85.3878 18Z" fill="#28D1D1"/>
<path d="M95.8507 49.2066C96.2403 50.1525 95.8507 51.2875 94.8766 51.855C93.9026 52.2334 92.7337 51.855 92.1493 50.9092C91.7597 49.9633 92.1493 48.8283 93.1234 48.2607C94.0974 47.6932 95.2663 48.0716 95.8507 49.2066Z" fill="#28D1D1"/>
<path d="M29.3751 0.692756C30.061 0.293112 30.9208 0.513456 31.3961 1.41618C31.6671 2.1015 31.3996 2.95055 30.6591 3.40261C29.9319 3.66491 29.0555 3.38736 28.5968 2.68128C28.3337 1.98871 28.6154 1.13538 29.3751 0.692756Z" stroke="#EE4783"/>
<path d="M66.9253 65.6033C67.1202 66.0762 66.9253 66.6437 66.4383 66.9275C65.9513 67.1167 65.3669 66.9275 65.0747 66.4546C64.8798 65.9816 65.0747 65.4141 65.5617 65.1304C66.0487 64.8466 66.6331 65.0358 66.9253 65.6033Z" fill="#EE4783"/>
<path d="M47.888 46.9049C48.1802 47.6143 47.888 48.4656 47.1575 48.8913C46.4269 49.175 45.5503 48.8913 45.112 48.1819C44.8198 47.4725 45.112 46.6212 45.8425 46.1956C46.5731 45.7699 47.4497 46.0537 47.888 46.9049Z" fill="#FFE080"/>
<path d="M15.3751 76.6928C16.061 76.2931 16.9208 76.5135 17.3961 77.4162C17.6671 78.1015 17.3996 78.9506 16.6591 79.4026C15.9319 79.6649 15.0555 79.3874 14.5968 78.6813C14.3337 77.9887 14.6154 77.1354 15.3751 76.6928Z" stroke="#802555"/>
<path d="M33.993 71.9943C33.8049 72.1834 30.2315 67.6457 25.5296 63.8644C21.58 60.6502 16.6901 57.4361 13.6808 54.9782C7.0982 50.0624 -1.17712 44.9576 0.139413 43.256C1.45594 41.5544 9.73126 48.739 14.6212 52.8984C19.5112 57.0579 34.3691 71.4271 33.993 71.9943Z" fill="#802555"/>
<path d="M64 40C64 40 52.3688 15.8672 50.6539 12.9562C49.0136 10.0452 50.8776 9.20013 51.6977 10.7965C52.5179 12.4867 61.2413 32.0183 64 40Z" fill="#28D1D1"/>
</svg>
