<svg width="970" height="32" viewBox="0 0 970 32" fill="none" xmlns="http://www.w3.org/2000/svg">
<path d="M238.388 14L237.163 10L233 8.75L236.429 6.25V2L239.857 4.5L243.776 3.25L242.306 7.25L245 10.5H240.837L238.388 14Z" fill="#28D1D1"/>
<path d="M211.851 23.2066C212.24 24.1525 211.851 25.2875 210.877 25.855C209.903 26.2334 208.734 25.855 208.149 24.9092C207.76 23.9633 208.149 22.8283 209.123 22.2607C210.097 21.6932 211.266 22.0716 211.851 23.2066Z" fill="#28D1D1"/>
<path d="M124 32C124 32 112.369 7.86717 110.654 4.95621C109.014 2.04525 110.878 1.20013 111.698 2.79646C112.518 4.4867 121.241 24.0183 124 32Z" fill="#28D1D1"/>
<path d="M65.5918 10L64.7755 7.33333L62 6.5L64.2857 4.83333V2L66.5714 3.66667L69.1837 2.83333L68.2041 5.5L70 7.66667H67.2245L65.5918 10Z" fill="#FFE080"/>
<path d="M2.88802 0.904949C3.18024 1.61435 2.88802 2.46562 2.15748 2.89126C1.42695 3.17502 0.550301 2.89126 0.111978 2.18187C-0.180237 1.47247 0.111978 0.62119 0.842516 0.195551C1.57305 -0.230087 2.4497 0.053672 2.88802 0.904949Z" fill="#FFE080"/>
<path d="M38.9957 30.9965C38.8795 31.1138 36.6724 28.2973 33.7683 25.9503C31.3288 23.9553 28.3086 21.9603 26.4499 20.4347C22.3842 17.3836 17.273 14.2151 18.0861 13.1589C18.8993 12.1027 24.0105 16.5621 27.0308 19.1439C30.051 21.7256 39.228 30.6444 38.9957 30.9965Z" fill="#802555"/>
<path d="M155.851 3.2066C156.24 4.15246 155.851 5.2875 154.877 5.85502C153.903 6.23336 152.734 5.85502 152.149 4.90915C151.76 3.96329 152.149 2.82825 153.123 2.26074C154.097 1.69322 155.266 2.07156 155.851 3.2066Z" fill="#28D1D1"/>
<path d="M171.925 30.6033C172.12 31.0762 171.925 31.6437 171.438 31.9275C170.951 32.1167 170.367 31.9275 170.075 31.4546C169.88 30.9816 170.075 30.4141 170.562 30.1304C171.049 29.8466 171.633 30.0358 171.925 30.6033Z" fill="#EE4783"/>
<path d="M86.3751 28.6928C87.061 28.2931 87.9208 28.5135 88.3961 29.4162C88.6671 30.1015 88.3996 30.9506 87.6591 31.4026C86.9319 31.6649 86.0555 31.3874 85.5968 30.6813C85.3337 29.9887 85.6154 29.1354 86.3751 28.6928Z" stroke="#802555"/>
<path d="M277.375 28.6928C278.061 28.2931 278.921 28.5135 279.396 29.4162C279.667 30.1015 279.4 30.9506 278.659 31.4026C277.932 31.6649 277.056 31.3874 276.597 30.6813C276.334 29.9887 276.615 29.1354 277.375 28.6928Z" stroke="#EE4783"/>
<path d="M911.586 30.5846C911.648 30.7716 914.023 26.5284 917.332 22.8454C920.08 19.7242 923.513 16.4153 925.698 14.1055C930.443 9.23602 936.311 3.99114 935.065 2.74531C933.819 1.49947 928.074 8.49033 924.702 12.4852C921.268 16.4178 911.275 30.1484 911.586 30.5846Z" fill="#FFE080"/>
<path d="M812.796 4L812.388 2.66667L811 2.25L812.143 1.41667V0L813.286 0.833333L814.592 0.416667L814.102 1.75L815 2.83333H813.612L812.796 4Z" fill="#802555"/>
<path d="M776.694 32L776.082 30L774 29.375L775.714 28.125V26L777.429 27.25L779.388 26.625L778.653 28.625L780 30.25H777.918L776.694 32Z" fill="#EE4783"/>
<path d="M965.592 8L964.776 5.33333L962 4.5L964.286 2.83333V0L966.571 1.66667L969.184 0.833333L968.204 3.5L970 5.66667H967.224L965.592 8Z" fill="#FFE080"/>
<path d="M848.851 29.2066C849.24 30.1525 848.851 31.2875 847.877 31.855C846.903 32.2334 845.734 31.855 845.149 30.9092C844.76 29.9633 845.149 28.8283 846.123 28.2607C847.097 27.6932 848.266 28.0716 848.851 29.2066Z" fill="#28D1D1"/>
<path d="M885.925 20.6033C886.12 21.0762 885.925 21.6437 885.438 21.9275C884.951 22.1167 884.367 21.9275 884.075 21.4546C883.88 20.9816 884.075 20.4141 884.562 20.1304C885.049 19.8466 885.633 20.0358 885.925 20.6033Z" fill="#EE4783"/>
<path d="M967.925 30.6033C968.12 31.0762 967.925 31.6437 967.438 31.9275C966.951 32.1167 966.367 31.9275 966.075 31.4546C965.88 30.9816 966.075 30.4141 966.562 30.1304C967.049 29.8466 967.633 30.0358 967.925 30.6033Z" fill="#EE4783"/>
</svg>
