<svg width="32" height="32" viewBox="0 0 32 32" fill="none" xmlns="http://www.w3.org/2000/svg">
  <rect width="32" height="32" rx="4" fill="#C0D6F7" fill-opacity="0.28"/>
  <path d="M17.2769 16.0982C17.2639 16.0853 17.2537 16.0699 17.2467 16.0531C17.2397 16.0362 17.2361 16.0181 17.2361 15.9998C17.2361 15.9816 17.2397 15.9635 17.2467 15.9466C17.2537 15.9297 17.2639 15.9144 17.2769 15.9015L22.4226 10.7562C22.5788 10.5997 22.6665 10.3876 22.6663 10.1664C22.6662 9.9453 22.5782 9.73329 22.4217 9.57704C22.2653 9.42079 22.0531 9.3331 21.832 9.33325C21.6109 9.33341 21.3989 9.4214 21.2427 9.57787L16.0975 14.721C16.0846 14.7339 16.0693 14.7442 16.0524 14.7512C16.0356 14.7582 16.0175 14.7618 15.9992 14.7618C15.9809 14.7618 15.9628 14.7582 15.946 14.7512C15.9291 14.7442 15.9138 14.7339 15.9009 14.721L10.7557 9.57787C10.6784 9.50047 10.5865 9.43906 10.4854 9.39716C10.3843 9.35525 10.276 9.33367 10.1665 9.33364C9.94553 9.33359 9.73354 9.42134 9.57723 9.57759C9.42091 9.73385 9.33306 9.9458 9.33301 10.1668C9.33296 10.3878 9.4207 10.5998 9.57695 10.7562L14.7215 15.9015C14.7345 15.9144 14.7447 15.9297 14.7517 15.9466C14.7587 15.9635 14.7623 15.9816 14.7623 15.9998C14.7623 16.0181 14.7587 16.0362 14.7517 16.0531C14.7447 16.0699 14.7345 16.0853 14.7215 16.0982L9.57695 21.2441C9.49958 21.3215 9.43822 21.4134 9.39637 21.5145C9.35451 21.6156 9.33298 21.724 9.33301 21.8334C9.33306 22.0544 9.42091 22.2664 9.57723 22.4226C9.65463 22.5 9.74651 22.5614 9.84762 22.6032C9.94874 22.6451 10.0571 22.6666 10.1665 22.6666C10.3876 22.6665 10.5995 22.5787 10.7557 22.4224L15.9009 17.2765C15.9138 17.2635 15.9291 17.2533 15.946 17.2463C15.9628 17.2393 15.9809 17.2357 15.9992 17.2357C16.0175 17.2357 16.0356 17.2393 16.0524 17.2463C16.0693 17.2533 16.0846 17.2635 16.0975 17.2765L21.2427 22.4224C21.3989 22.5787 21.6108 22.6665 21.8319 22.6666C22.0529 22.6666 22.2649 22.5789 22.4212 22.4226C22.5775 22.2664 22.6653 22.0544 22.6654 21.8334C22.6654 21.6124 22.5777 21.4004 22.4215 21.2441L17.2769 16.0982Z" fill="#7B729F"/>
</svg>
