<svg width="32" height="32" viewBox="0 0 32 32" fill="none" xmlns="http://www.w3.org/2000/svg">
  <rect width="32" height="32" rx="4" fill="#C0D6F7" fill-opacity="0.28"/>
  <path d="M11.833 15.9823C11.8328 15.7778 11.8712 15.5757 11.9458 15.3894C12.0204 15.203 12.1294 15.0368 12.2655 14.9017L18.4483 8.77007C18.6532 8.57627 18.9172 8.48052 19.1839 8.5033C19.4506 8.52608 19.6988 8.66558 19.8755 8.89197C20.0521 9.11835 20.1432 9.41366 20.1292 9.71474C20.1152 10.0158 19.9972 10.2988 19.8006 10.5031L14.3939 15.8648C14.379 15.8794 14.3671 15.8975 14.359 15.9178C14.3508 15.938 14.3466 15.96 14.3466 15.9823C14.3466 16.0045 14.3508 16.0265 14.359 16.0468C14.3671 16.067 14.379 16.0851 14.3939 16.0998L19.8006 21.4614C19.9051 21.5603 19.9911 21.6818 20.0534 21.8186C20.1157 21.9555 20.1531 22.105 20.1634 22.2585C20.1737 22.4119 20.1567 22.566 20.1134 22.7119C20.0701 22.8578 20.0014 22.9925 19.9112 23.108C19.8211 23.2236 19.7114 23.3176 19.5885 23.3846C19.4657 23.4517 19.3322 23.4904 19.1959 23.4984C19.0596 23.5065 18.9233 23.4837 18.7949 23.4315C18.6665 23.3793 18.5487 23.2987 18.4483 23.1945L12.2677 17.0647C12.1312 16.9294 12.0219 16.7629 11.947 16.5762C11.872 16.3896 11.8332 16.1871 11.833 15.9823Z" fill="#7B729F"/>
</svg>
